ffmpeg version 3.4.8-0ubuntu0.2 Copyright (c) 2000-2020 the FFmpeg developers
  built with gcc 7 (Ubuntu 7.5.0-3ubuntu1~18.04)
  configuration: --prefix=/usr --extra-version=0ubuntu0.2 --toolchain=hardened --libdir=/usr/lib/x86_64-linux-gnu --incdir=/usr/include/x86_64-linux-gnu --enable-gpl --disable-stripping --enable-avresample --enable-avisynth --enable-gnutls --enable-ladspa --enable-libass --enable-libbluray --enable-libbs2b --enable-libcaca --enable-libcdio --enable-libflite --enable-libfontconfig --enable-libfreetype --enable-libfribidi --enable-libgme --enable-libgsm --enable-libmp3lame --enable-libmysofa --enable-libopenjpeg --enable-libopenmpt --enable-libopus --enable-libpulse --enable-librubberband --enable-librsvg --enable-libshine --enable-libsnappy --enable-libsoxr --enable-libspeex --enable-libssh --enable-libtheora --enable-libtwolame --enable-libvorbis --enable-libvpx --enable-libwavpack --enable-libwebp --enable-libx265 --enable-libxml2 --enable-libxvid --enable-libzmq --enable-libzvbi --enable-omx --enable-openal --enable-opengl --enable-sdl2 --enable-libdc1394 --enable-libdrm --enable-libiec61883 --enable-chromaprint --enable-frei0r --enable-libopencv --enable-libx264 --enable-shared
  libavutil      55. 78.100 / 55. 78.100
  libavcodec     57.107.100 / 57.107.100
  libavformat    57. 83.100 / 57. 83.100
  libavdevice    57. 10.100 / 57. 10.100
  libavfilter     6.107.100 /  6.107.100
  libavresample   3.  7.  0 /  3.  7.  0
  libswscale      4.  8.100 /  4.  8.100
  libswresample   2.  9.100 /  2.  9.100
  libpostproc    54.  7.100 / 54.  7.100
[rawvideo @ 0x55eb30a3ca20] Estimating duration from bitrate, this may be inaccurate
Input #0, rawvideo, from '../../SVC-Encoder-20220109T061506Z-001/SVC-Encoder/Dataset/RollerCoaster/ERP_8x8/tile_yuv/Tile_28_480x240.yuv':
  Duration: 00:00:10.00, start: 0.000000, bitrate: 41472 kb/s
    Stream #0:0: Video: rawvideo (I420 / 0x30323449), yuv420p, 480x240, 41472 kb/s, 30 tbr, 30 tbn, 30 tbc
Stream mapping:
  Stream #0:0 -> #0:0 (rawvideo (native) -> h264 (libx264))
Press [q] to stop, [?] for help
[libx264 @ 0x55eb30a49c60] using cpu capabilities: MMX2 SSE2Fast LZCNT SSSE3 SSE4.2 AVX
[libx264 @ 0x55eb30a49c60] profile High, level 2.1
Output #0, rawvideo, to 'RollerCoaster_Tile_28_480x240_x264_QP_24.h264':
  Metadata:
    encoder         : Lavf57.83.100
    Stream #0:0: Video: h264 (libx264), yuv420p, 480x240, q=-1--1, 30 fps, 30 tbn, 30 tbc
    Metadata:
      encoder         : Lavc57.107.100 libx264
    Side data:
      cpb: bitrate max/min/avg: 0/0/0 buffer size: 0 vbv_delay: -1
frame=  300 fps=0.0 q=30.0 LPSNR=Y:inf U:inf V:inf *:inf size=      40kB time=00:00:09.93 bitrate=  32.8kbits/s speed=24.3x    
video:40kB audio:0kB subtitle:0kB other streams:0kB global headers:0kB muxing overhead: 0.000000%
[libx264 @ 0x55eb30a49c60] frame I:2     Avg QP:23.17  size:  1674  PSNR Mean Y:53.12 U:54.56 V:55.52 Avg:53.66 Global:53.62
[libx264 @ 0x55eb30a49c60] frame P:81    Avg QP:24.33  size:   318  PSNR Mean Y:51.95 U:52.91 V:54.59 Avg:52.44 Global:52.33
[libx264 @ 0x55eb30a49c60] frame B:217   Avg QP:29.63  size:    53  PSNR Mean Y:51.78 U:52.95 V:54.51 Avg:52.31 Global:52.21
[libx264 @ 0x55eb30a49c60] consecutive B-frames:  1.0%  6.7%  3.0% 89.3%
[libx264 @ 0x55eb30a49c60] mb I  I16..4: 82.8% 14.3%  2.9%
[libx264 @ 0x55eb30a49c60] mb P  I16..4:  3.6%  2.2%  0.1%  P16..4:  8.2%  1.7%  0.4%  0.0%  0.0%    skip:83.7%
[libx264 @ 0x55eb30a49c60] mb B  I16..4:  0.0%  0.0%  0.0%  B16..8:  3.7%  0.5%  0.0%  direct: 0.0%  skip:95.7%  L0:40.2% L1:55.9% BI: 3.9%
[libx264 @ 0x55eb30a49c60] 8x8 transform intra:31.0% inter:67.5%
[libx264 @ 0x55eb30a49c60] coded y,uvDC,uvAC intra: 3.4% 23.4% 4.1% inter: 0.6% 1.2% 0.0%
[libx264 @ 0x55eb30a49c60] i16 v,h,dc,p: 53% 21% 14% 12%
[libx264 @ 0x55eb30a49c60] i8 v,h,dc,ddl,ddr,vr,hd,vl,hu: 16% 10% 69%  0%  1%  2%  1%  1%  0%
[libx264 @ 0x55eb30a49c60] i4 v,h,dc,ddl,ddr,vr,hd,vl,hu: 20% 17% 27%  2%  6% 15%  5%  4%  3%
[libx264 @ 0x55eb30a49c60] i8c dc,h,v,p: 65% 18% 16%  1%
[libx264 @ 0x55eb30a49c60] Weighted P-Frames: Y:7.4% UV:0.0%
[libx264 @ 0x55eb30a49c60] ref P L0: 80.8%  6.0%  9.8%  3.0%  0.3%
[libx264 @ 0x55eb30a49c60] ref B L0: 90.2%  9.2%  0.5%
[libx264 @ 0x55eb30a49c60] ref B L1: 94.4%  5.6%
[libx264 @ 0x55eb30a49c60] PSNR Mean Y:51.837 U:52.947 V:54.540 Avg:52.355 Global:52.253 kb/s:32.58
